<?xml version="1.0" ?><!-- Uploaded to: SVG Repo, www.svgrepo.com, Generator: SVG Repo Mixer Tools -->
<svg fill="#000000" width="800px" height="800px" viewBox="0 0 32 32" data-name="Layer 1" id="Layer_1" xmlns="http://www.w3.org/2000/svg"><title/><path d="M25.62,9.3A4.44,4.44,0,0,0,26,7.5,4.51,4.51,0,0,0,21.5,3a4.23,4.23,0,0,0-.94.1,10.17,10.17,0,0,0-6.67-.88A4.35,4.35,0,0,0,12.5,2,4.47,4.47,0,0,0,8,6a9.93,9.93,0,0,0-2,6s0,.08,0,.12H6a10.22,10.22,0,0,0,.25,2.12L8,29.12A1,1,0,0,0,9,30H23a1,1,0,0,0,1-.88l1.75-14.89v0A10.53,10.53,0,0,0,26,12.12h0S26,12,26,12A9.89,9.89,0,0,0,25.62,9.3ZM9.78,7A1,1,0,0,0,10,6.38a2.5,2.5,0,0,1,3.43-2.2.94.94,0,0,0,.62.05A8.1,8.1,0,0,1,19.93,5a1,1,0,0,0,.81.08A2.46,2.46,0,0,1,21.5,5a2.5,2.5,0,0,1,2.18,3.72,1,1,0,0,0-.08.8A8.56,8.56,0,0,1,23.94,11H8.06A8,8,0,0,1,9.78,7Zm9.16,6-.88,15H13.94l-.88-15ZM8.25,14.09a.49.49,0,0,0,0-.12l-.11-1h2.93l.88,15h-2ZM22.11,28H20.06l.88-15h2.93l-.11,1a.13.13,0,0,0,0,.06ZM14,7a1,1,0,1,1-1-1h0A1,1,0,0,1,14,7Zm5,1a1,1,0,1,1-1-1h0A1,1,0,0,1,19,8Z"/></svg>